<svg xmlns="http://www.w3.org/2000/svg" height="24" width="24"><path d="M7.3 21.125q-.625 0-1.062-.437-.438-.438-.438-1.063 0-.65.438-1.075.437-.425 1.062-.425.65 0 1.075.425.425.425.425 1.075 0 .625-.425 1.063-.425.437-1.075.437Zm9.4 0q-.65 0-1.075-.437-.425-.438-.425-1.063 0-.65.425-1.075.425-.425 1.075-.425.625 0 1.062.425.438.425.438 1.075 0 .625-.438 1.063-.437.437-1.062.437ZM5.4 4.5h13q.675 0 1 .537.325.538.025 1.088l-2.85 5.2q-.225.375-.575.587-.35.213-.75.213H8.1L6.875 14.35q-.15.225 0 .5t.425.275h10.9v1H7.3q-.875 0-1.3-.738-.425-.737-.025-1.487l1.5-2.675L3.8 3.5H2v-1h2.45Z"/></svg>